<svg xmlns="http://www.w3.org/2000/svg" width="32" height="32" viewBox="0 0 32 32"><g transform="translate(0 -1020.362)"><path style="isolation:auto;mix-blend-mode:normal" fill="#4bbfeb" d="m 4,1036.7511 0,11.6113 24,0 0,-11.6113 -11.16797,7.4492 a 1.50015,1.50015 0 0 1 -1.66406,0 L 4,1036.7511 Z" color="#000" overflow="visible"/><path d="M 2.4921875,1033.3555 A 0.50004997,0.50004997 0 0 0 2,1033.8633 l 0,16 a 0.50004997,0.50004997 0 0 0 0.5,0.5 l 27,0 a 0.50004997,0.50004997 0 0 0 0.5,-0.5 l 0,-16 a 0.50004997,0.50004997 0 1 0 -1,0 l 0,15.5 -26,0 0,-15.5 a 0.50004997,0.50004997 0 0 0 -0.5078125,-0.5078 z" color="#000" font-family="sans-serif" font-weight="400" overflow="visible" white-space="normal" style="line-height:normal;text-indent:0;text-align:start;text-decoration-line:none;text-decoration-style:solid;text-decoration-color:#000;text-transform:none;block-progression:tb;isolation:auto;mix-blend-mode:normal"/><path style="line-height:normal;text-indent:0;text-align:start;text-decoration-line:none;text-decoration-style:solid;text-decoration-color:#000;text-transform:none;block-progression:tb;isolation:auto;mix-blend-mode:normal" fill-rule="evenodd" d="m 2.5566406,1033.3848 -0.5546875,0.832 13.7207029,9.1504 a 0.50005,0.50005 0 0 0 0.554688,0 l 13.720703,-9.1504 -0.554688,-0.832 L 16,1042.3496 2.5566406,1033.3848 Z" color="#000" font-family="sans-serif" font-weight="400" overflow="visible" white-space="normal"/><path style="line-height:normal;text-indent:0;text-align:start;text-decoration-line:none;text-decoration-style:solid;text-decoration-color:#000;text-transform:none;block-progression:tb;isolation:auto;mix-blend-mode:normal" fill-rule="evenodd" d="m 6.4921875,1029.918 a 0.50005,0.50005 0 0 0 -0.3066406,0.1172 l -3.9960938,3.246 a 0.50005,0.50005 0 1 0 0.6308594,0.7754 l 3.9941406,-3.2461 a 0.50005,0.50005 0 0 0 -0.3222656,-0.8925 z m 18.9863285,0.012 a 0.50005,0.50005 0 0 0 -0.304688,0.8926 l 4.00586,3.2382 a 0.50005,0.50005 0 1 0 0.628906,-0.7773 l -4.007813,-3.2383 a 0.50005,0.50005 0 0 0 -0.322265,-0.1152 z" color="#000" font-family="sans-serif" font-weight="400" overflow="visible" white-space="normal"/><path d="m 6.5,1022.3613 a 0.50005,0.50005 0 0 0 -0.5,0.5 l 0,13.5176 a 0.50005,0.50005 0 1 0 1,0 l 0,-13.0176 12.5,0 a 0.50005,0.50005 0 1 0 0,-1 l -13,0 z m 18.992188,6.0254 A 0.50005,0.50005 0 0 0 25,1028.8945 l 0,0.961 0,6.4961 a 0.50005,0.50005 0 1 0 1,0 l 0,-6.4961 0,-0.961 a 0.50005,0.50005 0 0 0 -0.507812,-0.5078 z" color="#000" font-family="sans-serif" font-weight="400" overflow="visible" white-space="normal" style="line-height:normal;text-indent:0;text-align:start;text-decoration-line:none;text-decoration-style:solid;text-decoration-color:#000;text-transform:none;block-progression:tb;isolation:auto;mix-blend-mode:normal"/><path fill="#4bbfeb" fill-rule="evenodd" d="m 20.99997,1022.3625 0,5 5,0"/><path d="m 15.722656,1029.4082 c -0.676979,0.1191 -1.313146,0.4688 -1.78125,1.0254 -0.936182,1.1131 -0.936182,2.7463 0,3.8594 0.936206,1.1131 2.545779,1.3942 3.806641,0.6679 A 0.50005,0.50005 0 1 0 17.25,1034.0957 c -0.84658,0.4876 -1.914982,0.2994 -2.542969,-0.4473 -0.62797,-0.7466 -0.62797,-1.8256 0,-2.5722 0.627988,-0.7467 1.696387,-0.9349 2.542969,-0.4473 a 0.50005,0.50005 0 1 0 0.498047,-0.8652 c -0.630433,-0.3632 -1.348412,-0.4746 -2.025391,-0.3555 z" color="#000" font-family="sans-serif" font-weight="400" overflow="visible" white-space="normal" style="line-height:normal;text-indent:0;text-align:start;text-decoration-line:none;text-decoration-style:solid;text-decoration-color:#000;text-transform:none;block-progression:tb;isolation:auto;mix-blend-mode:normal"/><path style="line-height:normal;text-indent:0;text-align:start;text-decoration-line:none;text-decoration-style:solid;text-decoration-color:#000;text-transform:none;block-progression:tb;isolation:auto;mix-blend-mode:normal" fill-rule="evenodd" d="M 17.492188,1028.8535 A 0.50005,0.50005 0 0 0 17,1029.3613 l 0,5.1094 a 0.50005,0.50005 0 1 0 1,0 l 0,-5.1094 a 0.50005,0.50005 0 0 0 -0.507812,-0.5078 z" color="#000" font-family="sans-serif" font-weight="400" overflow="visible" white-space="normal"/><path d="m 15.707031,1026.3652 c -0.642284,-0.025 -1.297754,0.063 -1.9375,0.2754 -2.558964,0.8484 -4.1289011,3.4363 -3.699219,6.0977 0.429659,2.6614 2.735682,4.625 5.431641,4.625 a 0.50004994,0.50004994 0 1 0 0,-1 c -2.212198,0 -4.090807,-1.5994 -4.443359,-3.7832 -0.352573,-2.1838 0.92561,-4.2941 3.02539,-4.9903 2.099797,-0.6961 4.386307,0.2315 5.408204,2.1934 1.021889,1.9619 0.471279,4.366 -1.302735,5.6875 a 0.50037985,0.50037985 0 0 0 0.597656,0.8027 c 2.161972,-1.6105 2.837176,-4.5602 1.591797,-6.9511 -0.934041,-1.7933 -2.745021,-2.883 -4.671875,-2.9571 z" color="#000" font-family="sans-serif" font-weight="400" overflow="visible" white-space="normal" style="line-height:normal;text-indent:0;text-align:start;text-decoration-line:none;text-decoration-style:solid;text-decoration-color:#000;text-transform:none;block-progression:tb;isolation:auto;mix-blend-mode:normal"/><path d="M 17.492188,1033.1191 A 0.50004994,0.50004994 0 0 0 17,1033.627 l 0,1.2363 c 0,0.8223 0.677649,1.5 1.5,1.5 a 0.50004994,0.50004994 0 1 0 0,-1 c -0.285649,0 -0.5,-0.2144 -0.5,-0.5 l 0,-1.2363 a 0.50004994,0.50004994 0 0 0 -0.507812,-0.5079 z" color="#000" font-family="sans-serif" font-weight="400" overflow="visible" white-space="normal" style="line-height:normal;text-indent:0;text-align:start;text-decoration-line:none;text-decoration-style:solid;text-decoration-color:#000;text-transform:none;block-progression:tb;isolation:auto;mix-blend-mode:normal"/></g></svg>